<svg width="21" height="20" viewBox="0 0 21 20" fill="none" xmlns="http://www.w3.org/2000/svg">
<path d="M19.9785 5.88005C19.9317 4.81738 19.7598 4.0868 19.5136 3.45374C19.2597 2.78176 18.869 2.18014 18.3571 1.68002C17.857 1.1721 17.2514 0.777435 16.5872 0.527447C15.9505 0.281274 15.2237 0.109427 14.161 0.0625732C13.0904 0.0117516 12.7505 0 10.0352 0C7.31978 0 6.9799 0.0117516 5.91326 0.0586052C4.85058 0.105459 4.12 0.277459 3.48709 0.523479C2.81497 0.777435 2.21335 1.16814 1.71322 1.68002C1.20531 2.18014 0.81079 2.78573 0.56065 3.44992C0.314478 4.0868 0.14263 4.81341 0.0957764 5.87609C0.0449547 6.9467 0.0332031 7.28658 0.0332031 10.002C0.0332031 12.7173 0.0449547 13.0572 0.0918083 14.1239C0.138662 15.1865 0.310662 15.9171 0.556834 16.5502C0.81079 17.2221 1.20531 17.8238 1.71322 18.3239C2.21335 18.8318 2.81893 19.2265 3.48313 19.4765C4.12 19.7226 4.84661 19.8945 5.90944 19.9413C6.97594 19.9883 7.31597 19.9999 10.0313 19.9999C12.7467 19.9999 13.0866 19.9883 14.1532 19.9413C15.2159 19.8945 15.9465 19.7226 16.5794 19.4765C17.9235 18.9568 18.9862 17.8941 19.5058 16.5502C19.7519 15.9133 19.9239 15.1865 19.9707 14.1239C20.0176 13.0572 20.0293 12.7173 20.0293 10.002C20.0293 7.28658 20.0254 6.9467 19.9785 5.88005ZM18.1775 14.0457C18.1344 15.0225 17.9704 15.5499 17.8336 15.9015C17.4976 16.7728 16.806 17.4643 15.9347 17.8004C15.5831 17.9372 15.0519 18.1012 14.0789 18.1441C13.024 18.1911 12.7076 18.2027 10.0391 18.2027C7.3706 18.2027 7.05026 18.1911 5.99918 18.1441C5.02243 18.1012 4.49498 17.9372 4.14335 17.8004C3.70976 17.6402 3.31509 17.3862 2.99475 17.0541C2.66265 16.7298 2.4087 16.3391 2.24845 15.9055C2.1117 15.5539 1.94764 15.0225 1.90475 14.0497C1.85775 12.9948 1.84615 12.6783 1.84615 10.0097C1.84615 7.34122 1.85775 7.02087 1.90475 5.96995C1.94764 4.99319 2.1117 4.46575 2.24845 4.11412C2.4087 3.68038 2.66265 3.28586 2.99872 2.96536C3.32288 2.63327 3.71358 2.37931 4.14732 2.21921C4.49895 2.08247 5.03036 1.9184 6.00315 1.87537C7.05804 1.82851 7.37457 1.81676 10.0429 1.81676C12.7154 1.81676 13.0318 1.82851 14.0829 1.87537C15.0596 1.9184 15.5871 2.08247 15.9387 2.21921C16.3723 2.37931 16.767 2.63327 17.0873 2.96536C17.4194 3.28967 17.6734 3.68038 17.8336 4.11412C17.9704 4.46575 18.1344 4.99701 18.1775 5.96995C18.2243 7.02484 18.2361 7.34122 18.2361 10.0097C18.2361 12.6783 18.2243 12.9908 18.1775 14.0457Z" fill="black"/>
<path d="M10.0362 4.86328C7.19976 4.86328 4.89844 7.16445 4.89844 10.001C4.89844 12.8376 7.19976 15.1387 10.0362 15.1387C12.8727 15.1387 15.1739 12.8376 15.1739 10.001C15.1739 7.16445 12.8727 4.86328 10.0362 4.86328ZM10.0362 13.3337C8.19605 13.3337 6.70345 11.8413 6.70345 10.001C6.70345 8.16074 8.19605 6.66829 10.0362 6.66829C11.8764 6.66829 13.3689 8.16074 13.3689 10.001C13.3689 11.8413 11.8764 13.3337 10.0362 13.3337Z" fill="black"/>
</svg>
