<svg xmlns="http://www.w3.org/2000/svg" width="21" height="21" viewBox="0 0 21 21" fill="none">
  <g clip-path="url(#clip0_2263_1006)">
    <path d="M4 9.08301C4 12.9865 7.1796 16.1661 11.0831 16.1661C12.7806 16.1661 14.3408 15.5633 15.5626 14.5627L19.7848 18.7848C20.0632 19.0712 20.5225 19.0713 20.7975 18.7877C21.0722 18.5039 21.0664 18.0558 20.7864 17.7833L16.5642 13.5612C17.5641 12.3396 18.1662 10.7799 18.1662 9.08307C18.1662 5.17961 14.9866 2.00003 11.0831 2C7.17959 1.99997 3.99999 5.17954 4 9.08301ZM11.0831 3.41658C14.221 3.41658 16.7496 5.94513 16.7496 9.08301C16.7496 12.2209 14.221 14.7494 11.0831 14.7494C7.9452 14.7494 5.41662 12.2209 5.41662 9.08301C5.41661 5.94513 7.9452 3.41658 11.0831 3.41658Z" fill="black"/>
  </g>
  <defs>
    <clipPath id="clip0_2263_1006">
      <rect width="21" height="21" fill="white"/>
    </clipPath>
  </defs>
</svg>