<svg width="11" height="11" viewBox="0 0 11 11" fill="none" xmlns="http://www.w3.org/2000/svg">
<g clip-path="url(#clip0_2234_38339)">
<path d="M5.49988 7.53857C5.19235 7.53857 4.93457 7.79635 4.93457 8.10388C4.93457 8.41141 5.19235 8.66918 5.49988 8.66918C5.7961 8.66918 6.06518 8.41141 6.05161 8.11745C6.06518 7.79409 5.80966 7.53857 5.49988 7.53857Z" fill="#D40F0F"/>
<path d="M10.7323 9.54192C11.0873 8.92913 11.0896 8.19876 10.7369 7.58823L7.19578 1.4558C6.84529 0.838486 6.21215 0.472168 5.50212 0.472168C4.7921 0.472168 4.15896 0.840747 3.80847 1.45354L0.262878 7.59275C-0.0898727 8.21006 -0.0876115 8.94496 0.269661 9.55775C0.622412 10.1638 1.25329 10.5278 1.95879 10.5278H9.03189C9.73965 10.5278 10.3751 10.1592 10.7323 9.54192ZM9.96351 9.09872C9.76679 9.43791 9.41856 9.63916 9.02963 9.63916H1.95653C1.57212 9.63916 1.22616 9.44243 1.03395 9.11003C0.839489 8.77311 0.837228 8.37061 1.03169 8.03143L4.57729 1.89448C4.76949 1.55755 5.11319 1.35857 5.50212 1.35857C5.88879 1.35857 6.23476 1.55982 6.42696 1.89674L9.9703 8.03369C10.1602 8.36383 10.158 8.7618 9.96351 9.09872Z" fill="#D40F0F"/>
<path d="M5.35927 3.57016C5.09018 3.64704 4.92285 3.89125 4.92285 4.18747C4.93642 4.36611 4.94772 4.54701 4.96129 4.72564C4.99973 5.40627 5.03817 6.07333 5.07661 6.75396C5.09018 6.9846 5.26882 7.15193 5.49946 7.15193C5.73011 7.15193 5.911 6.97329 5.92231 6.74039C5.92231 6.60019 5.92231 6.4713 5.93588 6.32885C5.96075 5.89243 5.98789 5.45602 6.01276 5.0196C6.02633 4.73695 6.0512 4.4543 6.06477 4.17164C6.06477 4.06989 6.0512 3.97944 6.01276 3.88899C5.89744 3.63573 5.62835 3.50684 5.35927 3.57016Z" fill="#D40F0F"/>
</g>
<defs>
<clipPath id="clip0_2234_38339">
<rect width="11" height="11" fill="white"/>
</clipPath>
</defs>
</svg>
