<svg xmlns="http://www.w3.org/2000/svg" width="22" height="22" viewBox="0 0 22 22" fill="none">
  <mask id="mask0_2263_1168" style="mask-type:luminance" maskUnits="userSpaceOnUse" x="0" y="1" width="22" height="20">
    <path d="M22 1H0V21H22V1Z" fill="white"/>
  </mask>
  <g mask="url(#mask0_2263_1168)">
    <path d="M4.56303 4.38167L5.40208 7.7082L8.12252 7.55898L7.76648 4.38167H4.56303ZM15.9269 17.127C16.1729 17.1273 16.4164 17.1778 16.6435 17.2757C16.8705 17.3736 17.0766 17.5168 17.2499 17.6973C17.4239 17.8766 17.562 18.0896 17.6562 18.3241C17.7504 18.5587 17.7989 18.8101 17.7989 19.064C17.7989 19.3179 17.7504 19.5693 17.6562 19.8039C17.562 20.0384 17.4239 20.2514 17.2499 20.4307C17.0763 20.6105 16.8701 20.7531 16.6431 20.8505C16.4161 20.9478 16.1727 20.9979 15.9269 20.9979C15.6811 20.9979 15.4377 20.9478 15.2107 20.8505C14.9837 20.7531 14.7775 20.6105 14.6039 20.4307C14.4299 20.2514 14.2918 20.0384 14.1976 19.8039C14.1034 19.5693 14.0549 19.3179 14.0549 19.064C14.0549 18.8101 14.1034 18.5587 14.1976 18.3241C14.2918 18.0896 14.4299 17.8766 14.6039 17.6973C14.7772 17.5168 14.9833 17.3736 15.2103 17.2757C15.4374 17.1778 15.6809 17.1273 15.9269 17.127ZM16.3197 18.6582C16.2287 18.5626 16.1083 18.5026 15.9792 18.4886C15.8501 18.4745 15.7202 18.5072 15.6119 18.5811C15.5035 18.6549 15.4234 18.7654 15.3851 18.8935C15.3468 19.0217 15.3528 19.1596 15.402 19.2837C15.4513 19.4078 15.5407 19.5104 15.655 19.5739C15.7693 19.6375 15.9015 19.658 16.0288 19.6321C16.1562 19.6061 16.2709 19.5353 16.3533 19.4317C16.4358 19.3281 16.4808 19.1981 16.4807 19.064C16.4812 18.9887 16.4671 18.9141 16.4395 18.8444C16.4119 18.7748 16.3712 18.7115 16.3197 18.6582ZM9.44364 7.4915L12.0371 7.35273V4.38167H9.09312L9.44364 7.4915ZM9.59544 8.84682L9.92848 11.8141L12.0371 11.5888V8.71661L9.59544 8.84682ZM8.61564 11.9538L8.27524 8.9124L5.74248 9.04736L6.53184 12.1762L8.61564 11.9538ZM17.6317 4.38262L17.3299 7.0714L19.9059 6.93454L20.5057 4.38357L17.6317 4.38262ZM17.1763 8.44288L16.8819 11.0718L18.985 10.8475L19.5811 8.31457L17.1763 8.44288ZM15.5368 11.2153L15.8377 8.50941L13.3583 8.64152V11.4434L15.5368 11.2153ZM15.9968 7.14269L16.3059 4.38643H13.3619V7.2824L15.9968 7.14269ZM18.444 15.2965C18.6192 15.2965 18.7872 15.3684 18.9111 15.4963C19.035 15.6243 19.1046 15.7979 19.1046 15.9789C19.1046 16.1599 19.035 16.3334 18.9111 16.4614C18.7872 16.5894 18.6192 16.6613 18.444 16.6613H5.3156C5.21091 16.6611 5.10776 16.6353 5.01463 16.5859C4.92149 16.5365 4.84104 16.4649 4.77988 16.3772C4.71871 16.2894 4.67859 16.1879 4.6628 16.081C4.64702 15.9741 4.65602 15.8648 4.68907 15.7622L5.35792 12.9194L2.68991 2.3696H0.660387C0.484707 2.3696 0.316223 2.29751 0.191999 2.16917C0.0677743 2.04084 -0.00201416 1.86678 -0.00201416 1.68529C-0.00201416 1.5038 0.0677743 1.32974 0.191999 1.20141C0.316223 1.07307 0.484707 1.00098 0.660387 1.00098L3.19407 1.00098C3.33994 1.00098 3.48169 1.051 3.59708 1.1432C3.71246 1.23539 3.79496 1.36455 3.83163 1.51041L4.21251 3.0159H21.3439C21.4438 3.01532 21.5426 3.03826 21.6327 3.08297C21.7228 3.12767 21.8019 3.19298 21.864 3.27394C21.926 3.3549 21.9694 3.44939 21.9909 3.55025C22.0124 3.65111 22.0113 3.7557 21.9879 3.85608L20.158 11.6078C20.1302 11.7505 20.059 11.8803 19.9547 11.9781C19.8504 12.0759 19.7185 12.1367 19.5784 12.1515L6.56588 13.541L6.15372 15.2955L18.444 15.2965ZM7.14548 17.127C7.3915 17.1273 7.63504 17.1778 7.86209 17.2756C8.08914 17.3735 8.29521 17.5168 8.46844 17.6973C8.64246 17.8766 8.78053 18.0896 8.87474 18.3241C8.96895 18.5587 9.01744 18.8101 9.01744 19.064C9.01744 19.3179 8.96895 19.5693 8.87474 19.8039C8.78053 20.0384 8.64246 20.2514 8.46844 20.4307C8.29487 20.6105 8.08867 20.7531 7.86165 20.8505C7.63464 20.9478 7.39127 20.9979 7.14548 20.9979C6.89969 20.9979 6.65632 20.9478 6.4293 20.8505C6.20229 20.7531 5.99609 20.6105 5.82252 20.4307C5.64849 20.2514 5.51042 20.0384 5.41622 19.8039C5.32201 19.5693 5.27352 19.3179 5.27352 19.064C5.27352 18.8101 5.32201 18.5587 5.41622 18.3241C5.51042 18.0896 5.64849 17.8766 5.82252 17.6973C5.99575 17.5168 6.20182 17.3735 6.42887 17.2756C6.65592 17.1778 6.89946 17.1273 7.14548 17.127ZM7.53832 18.6582C7.4471 18.5624 7.3265 18.5025 7.19718 18.4885C7.06787 18.4746 6.93788 18.5076 6.82951 18.5818C6.72114 18.656 6.64112 18.7668 6.60317 18.8953C6.56523 19.0238 6.57171 19.1619 6.62152 19.286C6.67132 19.41 6.76135 19.5123 6.87616 19.5754C6.99098 19.6384 7.12344 19.6582 7.25085 19.6314C7.37825 19.6046 7.49267 19.5329 7.57449 19.4285C7.65631 19.3241 7.70044 19.1936 7.69932 19.0592C7.69974 18.984 7.68573 18.9093 7.6581 18.8397C7.63046 18.77 7.58976 18.7067 7.53832 18.6534" fill="white"/>
  </g>
</svg>