<svg width="20" height="15" viewBox="0 0 20 15" fill="none" xmlns="http://www.w3.org/2000/svg">
<path d="M11.1752 12.5015C13.479 12.9717 15.7358 12.4075 17.0993 10.9029L17.7575 11.2791C18.2277 11.5612 18.8859 11.3731 19.168 10.9029C19.4501 10.4328 19.215 9.82157 18.7448 9.53947L18.0396 9.11633C18.7448 6.57745 17.2403 3.47437 14.2783 1.78178C11.3163 0.0891988 7.9311 0.371296 6.09746 2.25195L5.53327 1.92283C5.0631 1.64074 4.40487 1.8288 4.12278 2.29896C3.84068 2.76913 4.02874 3.42735 4.49891 3.70945L5.01609 3.99155C4.59294 5.16696 4.68697 6.48341 5.20415 7.70584" stroke="black" stroke-width="0.5" stroke-miterlimit="10"/>
<path d="M6.7554 7.70508V12.6888M6.7554 7.70508L3.18216 11.1373M6.7554 7.70508L10.4697 10.9492M6.7554 7.70508H11.7391C11.7391 10.432 9.48234 12.6888 6.7554 12.6888M6.7554 7.70508L1.77167 7.75209C1.77167 9.06855 2.28885 10.291 3.18216 11.1843C4.07547 12.1246 5.34491 12.6888 6.7554 12.6888M6.89645 7.70508H13.3847C13.3847 11.2313 10.4697 14.1463 6.89645 14.1463C3.32321 14.1463 0.408203 11.2313 0.408203 7.70508H6.89645Z" stroke="black" stroke-width="0.5" stroke-miterlimit="10"/>
</svg>
