<svg width="10" height="10" viewBox="0 0 10 10" fill="none" xmlns="http://www.w3.org/2000/svg">
<path d="M3.09601 7.13936H3.23706C2.29674 6.19903 2.29674 5.16468 2.39077 4.55347C2.29674 4.03629 2.24972 3.66016 2.24972 3.66016C1.73254 3.75419 1.40343 4.69451 1.54448 5.72887C1.59149 5.96395 1.63851 6.19903 1.68553 6.34008C2.06166 6.76323 2.39077 6.85726 3.09601 7.13936Z" stroke="black" stroke-width="0.3" stroke-miterlimit="10"/>
<path d="M3.42578 7.32812C3.7549 7.98635 3.94296 8.4095 4.22506 8.64458C4.41312 8.6916 4.6482 8.73861 4.9303 8.73861C6.01168 8.78563 6.85797 8.31547 6.90499 7.75127H6.38781C5.91764 7.98635 4.74224 8.45652 3.42578 7.32812Z" stroke="black" stroke-width="0.3" stroke-miterlimit="10"/>
<path d="M4.27284 5.54043C3.89671 5.11729 3.80268 4.64712 3.75566 4.27099C3.47356 3.37768 3.37953 2.48438 3.37953 2.48438C2.90937 2.57841 2.58025 3.4247 2.67429 4.36503C3.19146 5.11729 3.47356 5.21132 4.27284 5.54043Z" stroke="black" stroke-width="0.3" stroke-miterlimit="10"/>
<path d="M4.92969 6.10547C5.35283 6.95176 5.63493 7.28088 6.05808 7.51596C7.13945 7.51596 7.98575 7.09281 8.03276 6.52862C8.03276 6.52862 7.32752 6.52862 6.52824 6.43458C6.15211 6.52862 5.5409 6.52862 4.92969 6.10547Z" stroke="black" stroke-width="0.3" stroke-miterlimit="10"/>
<path d="M5.21229 4.41291C4.78915 3.8017 4.9302 3.09646 5.07125 2.6263C4.97721 2.0621 4.97721 1.54492 4.97721 1.54492C4.46003 1.68597 4.0839 2.57928 4.13092 3.51961V3.56662C4.50705 4.03678 4.69512 4.22485 5.21229 4.41291Z" stroke="black" stroke-width="0.3" stroke-miterlimit="10"/>
<path d="M5.91797 5.02372C6.15305 5.5409 6.34112 5.77598 6.62321 5.96405H6.95233C7.89265 5.91703 8.69193 5.44687 8.78596 4.92969C8.78596 4.92969 8.26878 4.9767 7.65757 4.9767C7.28144 5.16477 6.62321 5.35283 5.91797 5.02372Z" stroke="black" stroke-width="0.3" stroke-miterlimit="10"/>
<path d="M6.67122 3.23683C6.67122 3.18981 6.6242 3.09578 6.57719 3.04876C6.53017 2.95473 6.48315 2.81368 6.43614 2.71965C6.24807 2.0144 6.24807 1.12109 6.24807 1.12109C5.87194 1.21513 5.58984 1.87335 5.58984 2.62561V2.76666C5.82493 3.00174 6.10702 3.09578 6.67122 3.23683Z" stroke="black" stroke-width="0.3" stroke-miterlimit="10"/>
<path d="M9.11587 3.66058C9.11587 3.66058 8.12853 3.75461 7.42329 3.61356C7.32926 3.61356 7.28224 3.56655 7.18821 3.56655H7.14119C7.04716 3.51953 7.00014 3.51953 6.95312 3.51953C7.14119 4.08373 7.28224 4.31881 7.4703 4.50687H7.70538C8.45764 4.36582 9.06886 4.03671 9.11587 3.66058Z" stroke="black" stroke-width="0.3" stroke-miterlimit="10"/>
<path d="M8.08107 3.19018C8.1751 3.2372 8.31615 3.2372 8.4572 3.14317C8.78631 2.9551 8.97438 2.57897 8.88034 2.29688C8.88034 2.29688 8.59825 2.48494 8.26913 2.53196C8.12808 2.67301 7.94002 2.72002 7.75195 2.76704C7.893 2.9551 7.94002 3.09615 8.08107 3.19018Z" stroke="black" stroke-width="0.3" stroke-miterlimit="10"/>
<path d="M7.32968 2.29717C7.32968 2.15613 7.3767 1.96806 7.47073 1.82701C7.51774 1.54491 7.65879 1.30983 7.65879 1.30983C7.3767 1.26282 7.00057 1.54491 6.85952 1.87403C6.85952 1.92104 6.8125 1.96806 6.8125 1.96806C6.95355 2.15613 7.0946 2.20314 7.32968 2.29717Z" stroke="black" stroke-width="0.3" stroke-miterlimit="10"/>
<path d="M3.3794 7.32735C3.34805 7.29601 3.31671 7.26466 3.28537 7.23332C3.23835 7.1863 3.14432 7.1863 3.0973 7.13929C2.39206 6.85719 2.06294 6.76316 1.68681 6.38703C1.54576 6.19896 1.3577 5.96388 1.16963 5.63477C1.16963 5.63477 0.558422 7.09227 2.20399 8.50276C3.84956 9.96026 5.119 9.25502 5.119 9.25502C4.69585 9.06695 4.46077 8.97292 4.17867 8.69082C3.94359 8.40873 3.70851 8.0326 3.3794 7.32735Z" stroke="black" stroke-width="0.3" stroke-miterlimit="10"/>
<path d="M4.9302 6.10568C4.83616 6.01165 4.69512 5.96464 4.60108 5.8706C4.46003 5.77657 4.366 5.68254 4.31899 5.54149C3.47269 5.21238 3.23761 5.11834 2.72043 4.36608C2.67342 4.27205 2.6264 4.17802 2.53237 4.08398C2.53237 4.08398 2.43833 4.27205 2.39132 4.60116C2.29729 5.21238 2.29729 6.24673 3.23761 7.18706C3.26895 7.2184 3.3003 7.24975 3.33164 7.28109C3.36299 7.31244 3.39433 7.34378 3.42568 7.37512L3.47269 7.42214C4.78915 8.55053 6.01157 8.08037 6.3877 7.84529C6.48173 7.79827 6.52875 7.75125 6.52875 7.75125C6.3877 7.70424 6.24665 7.61021 6.1056 7.56319C5.63544 7.28109 5.35334 6.95198 4.9302 6.10568Z" stroke="black" stroke-width="0.3" stroke-miterlimit="10"/>
<path d="M5.9182 5.02281C5.77715 4.92877 5.6361 4.83474 5.49505 4.74071C5.354 4.64668 5.25997 4.50563 5.21296 4.41159C4.69578 4.22353 4.50771 4.08248 4.13158 3.5653C4.08457 3.47127 3.99053 3.37724 3.94352 3.2832C3.94352 3.2832 3.75545 3.70635 3.80247 4.27055C3.80247 4.64668 3.94352 5.11684 4.31965 5.53998C4.41368 5.63402 4.50771 5.72805 4.60174 5.8691C4.69578 5.96313 4.83683 6.05716 4.93086 6.10418C5.54207 6.52733 6.15328 6.52733 6.57643 6.43329C6.95256 6.33926 7.18764 6.19821 7.18764 6.19821C6.99957 6.10418 6.81151 6.05716 6.67046 5.96313C6.38836 5.77507 6.2003 5.53998 5.9182 5.02281Z" stroke="black" stroke-width="0.3" stroke-miterlimit="10"/>
<path d="M6.95139 3.47285C6.95139 3.4415 6.93572 3.41016 6.90437 3.37881C6.87303 3.34747 6.84168 3.31613 6.81034 3.28478C6.77899 3.25344 6.74765 3.22209 6.71631 3.19075H6.62227C6.05808 3.0497 5.823 3.00268 5.58791 2.67357C5.49388 2.53252 5.39985 2.34446 5.2588 2.10938C5.2588 2.10938 5.16477 2.29744 5.07074 2.57954C4.92969 3.0497 4.78864 3.75495 5.21178 4.36616C5.30582 4.46019 5.39985 4.60124 5.49388 4.69527C5.63493 4.83632 5.77598 4.93035 5.91703 4.97737C6.57526 5.30648 7.23349 5.11842 7.65663 4.93035C7.89171 4.7893 8.03276 4.69527 8.03276 4.69527C7.79768 4.60124 7.60961 4.55422 7.46857 4.41317C7.2805 4.27212 7.09244 4.03704 6.95139 3.47285Z" stroke="black" stroke-width="0.3" stroke-miterlimit="10"/>
<path d="M6.7173 3.23708C6.74865 3.26843 6.77999 3.29977 6.81134 3.33112C6.84268 3.36246 6.87402 3.39381 6.90537 3.42515C6.9994 3.51918 7.09343 3.5662 7.18747 3.61321C7.2815 3.66023 7.32852 3.66023 7.42255 3.66023C7.93973 3.70725 8.40989 3.37813 8.40989 3.37813C8.26884 3.33112 8.17481 3.2841 8.08077 3.23708C7.98674 3.14305 7.89271 3.002 7.79868 2.81394C7.65763 2.81394 7.5636 2.81394 7.46956 2.71991C7.37553 2.62587 7.32851 2.48482 7.32851 2.34377C7.09343 2.24974 6.95238 2.20273 6.81134 2.01466C6.76432 1.92063 6.67029 1.8266 6.62327 1.68555C6.62327 1.68555 6.34117 2.20273 6.43521 2.71991C6.43521 2.81394 6.48222 2.95499 6.57625 3.04902C6.62327 3.09603 6.67029 3.19007 6.7173 3.23708Z" stroke="black" stroke-width="0.3" stroke-miterlimit="10"/>
<path d="M7.32812 2.29649C7.32812 2.43754 7.37514 2.57859 7.46917 2.67262C7.56321 2.76666 7.65724 2.76666 7.79829 2.76666C7.93934 2.76666 8.1274 2.67262 8.31547 2.53158C8.36248 2.48456 8.4095 2.48456 8.45652 2.43754C8.73861 2.10843 8.59756 1.54423 8.55055 1.4502C8.55055 1.40318 7.89232 1.30915 7.61022 1.68528C7.56321 1.7323 7.56321 1.77931 7.51619 1.82633C7.37514 1.96738 7.32812 2.10843 7.32812 2.29649Z" stroke="black" stroke-width="0.3" stroke-miterlimit="10"/>
</svg>
