<svg width="15" height="18" viewBox="0 0 15 18" fill="none" xmlns="http://www.w3.org/2000/svg">
<path d="M4.05501 8.00821C3.81864 8.05548 3.58228 8.05548 3.39319 7.96094C3.25137 8.05548 3.10955 8.15003 2.92046 8.15003C2.77864 8.15003 2.6841 8.10276 2.58955 8.05548C2.40046 8.15003 2.1641 8.15003 1.92773 8.10276C2.06955 9.00094 2.44773 10.9864 2.82592 12.6882C3.25137 12.2155 3.7241 11.6955 4.19683 11.1755C4.14955 9.89912 4.10228 8.7173 4.05501 8.00821Z" stroke="black" stroke-width="0.5" stroke-miterlimit="10"/>
<path d="M3.25195 14.4842C3.3465 14.8151 3.39377 15.0515 3.48832 15.1933C3.8665 16.2333 4.15013 16.8951 4.15013 16.8951C4.15013 16.8951 4.33923 17.2733 4.81195 17.0369C5.28468 16.8006 5.33195 16.4696 5.33195 16.4696C5.33195 16.4696 4.85923 14.8151 4.52832 13.1133C4.10286 13.5387 3.67741 14.0115 3.25195 14.4842Z" stroke="black" stroke-width="0.5" stroke-miterlimit="10"/>
<path d="M0.746527 5.36085C1.03016 5.83357 1.50289 6.3063 1.92835 6.68448V6.49539C1.92835 5.59721 2.40107 4.88812 2.96835 4.88812C3.53562 4.88812 4.00835 5.59721 4.00835 6.49539V6.77903C4.38653 6.44812 4.76471 6.06994 5.09562 5.64448C5.28471 5.17175 5.37926 4.65175 5.37926 4.08448C5.37926 2.24085 4.29198 0.775391 2.92107 0.775391C1.55016 0.775391 0.462891 2.24085 0.462891 4.08448C0.462891 4.50994 0.510164 4.93539 0.651982 5.2663C0.651982 5.2663 0.699254 5.2663 0.746527 5.36085Z" stroke="black" stroke-width="0.5" stroke-miterlimit="10"/>
<path d="M2.63835 8.00744C2.26017 7.81835 2.0238 7.29835 1.97653 6.68381C1.55108 6.30563 1.07835 5.8329 0.794712 5.36017C0.747439 5.26563 0.700166 5.26562 0.700166 5.26562C0.511075 5.36017 0.511076 6.68381 0.983803 7.29835C1.26744 7.67653 1.64562 7.9129 2.0238 8.05472C2.21289 8.10199 2.44926 8.10199 2.63835 8.00744Z" stroke="black" stroke-width="0.5" stroke-miterlimit="10"/>
<path d="M4.00868 6.77999C3.96141 7.29999 3.72504 7.72545 3.44141 7.91454C3.6305 8.00908 3.86686 8.00908 4.10322 7.96181C4.48141 7.86727 4.85959 7.6309 5.1905 7.20545C5.75777 6.49636 5.66322 4.79454 5.37959 5.26727C5.28504 5.36181 5.23777 5.50363 5.14322 5.59818C4.76504 6.0709 4.33959 6.44909 4.00868 6.77999Z" stroke="black" stroke-width="0.5" stroke-miterlimit="10"/>
<path d="M4.00773 6.77958V6.49594C4.00773 5.59776 3.53501 4.88867 2.96773 4.88867C2.40046 4.88867 1.92773 5.59776 1.92773 6.49594V6.68504C1.97501 7.29958 2.25864 7.81958 2.58955 8.00867C2.6841 8.05594 2.82592 8.10322 2.92046 8.10322C3.06228 8.10322 3.25137 8.05594 3.39319 7.91413C3.7241 7.72504 3.91319 7.29958 4.00773 6.77958Z" stroke="black" stroke-width="0.5" stroke-miterlimit="10"/>
<path d="M7.60012 9.71032C7.41103 9.66305 7.26921 9.5685 7.17467 9.42668C7.12739 9.33214 7.08012 9.19032 7.08012 9.09577C6.89103 9.00123 6.74921 8.81214 6.65467 8.62305C6.13467 9.14305 5.23648 10.1358 4.29103 11.1285C3.8183 11.6485 3.34558 12.1685 2.92012 12.6412C2.30558 13.3503 1.78558 13.9176 1.59648 14.2012C0.981939 15.1467 0.603757 15.7612 0.603757 15.7612C0.603757 15.7612 0.414667 16.1394 0.887394 16.3758C1.36012 16.6121 1.69103 16.4703 1.69103 16.4703C1.69103 16.4703 2.40012 15.5249 3.2983 14.5321C3.67648 14.1067 4.10194 13.634 4.52739 13.2085C4.71648 13.0194 4.90558 12.8303 5.09467 12.6885C6.13467 11.7903 7.26921 10.8449 7.9783 10.3249C7.78921 10.0885 7.64739 9.89941 7.60012 9.71032Z" stroke="black" stroke-width="0.5" stroke-miterlimit="10"/>
<path d="M13.5099 4.98282C12.7535 3.801 10.8153 3.75373 9.20804 4.79373C8.78259 5.07737 8.4044 5.40827 8.12077 5.78646C8.12077 5.78646 8.16804 5.83373 8.12077 5.92827C7.8844 6.44827 7.78986 7.11009 7.69531 7.72464C7.74259 7.67737 7.83713 7.63009 7.93168 7.53555C8.68804 7.01555 9.6335 6.96827 9.9644 7.48827C10.2953 8.00827 9.9644 8.81191 9.16077 9.33191C9.1135 9.37918 9.06622 9.42646 8.97168 9.42646C9.53895 9.521 10.1535 9.61555 10.6735 9.56827C11.099 9.42646 11.5244 9.23737 11.9026 9.001C13.5571 7.961 14.2662 6.16464 13.5099 4.98282Z" stroke="black" stroke-width="0.5" stroke-miterlimit="10"/>
<path d="M7.03337 9.04812C6.9861 8.62267 7.22246 8.10267 7.74246 7.67722C7.83701 7.06267 7.93155 6.40085 8.16792 5.88085C8.21519 5.83358 8.21519 5.78631 8.16792 5.73903C8.0261 5.59722 6.84428 6.40085 6.65519 7.20449C6.51337 7.67722 6.51337 8.19722 6.65519 8.52812C6.70246 8.81176 6.84428 8.95358 7.03337 9.04812Z" stroke="black" stroke-width="0.5" stroke-miterlimit="10"/>
<path d="M8.97287 9.42578C8.45287 9.70942 7.93287 9.80396 7.55469 9.70942C7.60196 9.89851 7.74378 10.0876 7.98014 10.2294C8.31105 10.4658 8.73651 10.6076 9.25651 10.6076C10.202 10.6549 11.6201 9.52033 11.0056 9.5676C10.9111 9.5676 10.8165 9.5676 10.722 9.61487C10.1547 9.61487 9.54014 9.52033 8.97287 9.42578Z" stroke="black" stroke-width="0.5" stroke-miterlimit="10"/>
<path d="M7.03331 9.04866C7.03331 9.19048 7.08058 9.28502 7.12785 9.37957C7.2224 9.52139 7.36422 9.61593 7.55331 9.6632C7.93149 9.75775 8.45149 9.71048 8.97149 9.37957C9.01876 9.3323 9.06604 9.3323 9.11331 9.28502C9.86967 8.76502 10.2479 7.91411 9.91694 7.44139C9.58604 6.92139 8.68785 6.96866 7.88422 7.48866C7.78967 7.53593 7.7424 7.58321 7.64785 7.67775C7.2224 8.10321 6.98604 8.6232 7.03331 9.04866Z" stroke="black" stroke-width="0.5" stroke-miterlimit="10"/>
</svg>
