<svg width="39" height="41" viewBox="0 0 39 41" fill="none" xmlns="http://www.w3.org/2000/svg">
<g clip-path="url(#clip0_2218_36233)">
<path d="M3.11877 9.24578C3.11877 9.24578 3.69086 10.5007 3.0265 10.7959C2.36215 11.0912 1.10726 11.3127 0.811992 11.7556C0.516724 12.1985 0.147638 13.3795 0.147638 15.225V34.2021C0.147638 34.2021 -0.369081 38.4097 4.57666 39.074C9.5224 39.7384 16.9041 39.9598 20.4535 39.9598C24.0028 39.9598 34.0789 39.5538 37.7882 37.6715C38.9692 37.0748 38.9077 34.0545 38.8339 32.4305C38.7601 30.8065 38.8462 14.2653 38.8462 14.2653C38.8462 14.2653 38.4402 12.5675 37.7882 11.8294C37.1361 11.0912 37.2838 11.2388 36.4718 10.7959C35.6598 10.353 35.8074 9.12891 35.8074 9.12891L3.11877 9.24578Z" fill="white" stroke="black" stroke-width="0.5" stroke-miterlimit="10"/>
<path d="M1.25478 1.60525C1.25478 1.60525 1.32859 2.78632 1.25478 3.30304C1.18096 3.81976 1.62386 3.45067 1.62386 3.96739C1.62386 4.48411 1.61771 4.55793 1.43317 4.77938C1.24863 5.00083 1.16251 5.44373 1.24247 5.66518C1.32244 5.88663 1.47008 6.10809 1.61771 6.55099C1.76535 6.99389 1.83916 7.65824 1.61771 7.95351C1.39626 8.24878 1.78995 8.7655 1.48238 8.91313C1.17481 9.06077 1.20557 9.35604 1.20557 9.35604C1.20557 9.35604 9.1409 9.75588 19.4814 9.75588C29.822 9.75588 37.7204 9.38679 37.7204 9.38679V8.69168C37.7204 8.69168 37.1299 8.54405 37.056 8.24878L36.9822 7.95351C36.853 7.43064 37.2283 7.14768 37.2836 6.77859C37.3513 6.34184 37.1299 5.55446 37.1299 5.55446C37.1299 5.55446 36.9269 5.36376 36.9084 4.92701C36.8899 4.49026 38.0403 4.07197 37.7204 3.22922C37.4866 2.61408 37.4989 2.04815 37.1299 1.60525C36.7608 1.16234 34.9892 0.571808 32.7008 0.497991C30.4125 0.424174 19.4999 0.128906 19.4999 0.128906C19.4999 0.128906 6.49579 0.497991 4.65036 0.645625C2.80494 0.79326 1.91913 0.793259 1.25478 1.60525Z" fill="white" stroke="black" stroke-width="0.5" stroke-miterlimit="10"/>
<path d="M1.62378 3.96777H37.4927" stroke="black" stroke-width="0.5" stroke-miterlimit="10"/>
<path d="M1.62378 6.98145H37.2282" stroke="black" stroke-width="0.5" stroke-miterlimit="10"/>
<path d="M0.738037 12.0508C0.738037 12.0508 6.81564 12.8874 20.0104 12.8874C33.2052 12.8874 37.9603 12.0508 37.9603 12.0508" fill="white"/>
<path d="M0.738037 12.0508C0.738037 12.0508 6.81564 12.8874 20.0104 12.8874C33.2052 12.8874 37.9603 12.0508 37.9603 12.0508" stroke="black" stroke-width="0.5" stroke-miterlimit="10"/>
<path d="M1.3595 6.07129H37.2284" stroke="black" stroke-width="0.5" stroke-miterlimit="10"/>
<path d="M38.8339 33.4149C38.8339 33.4149 29.8343 34.4606 19.5553 34.4606C9.27629 34.4606 0.147583 33.4149 0.147583 33.4149V17.415C0.147583 17.415 6.40973 18.4177 19.5553 18.4608C32.7009 18.5038 38.8339 17.415 38.8339 17.415V33.4149Z" fill="white" stroke="black" stroke-width="0.5" stroke-miterlimit="10"/>
<path d="M16.5966 26.1494C16.5966 25.6142 16.1598 25.1836 15.6308 25.1836C15.1018 25.1836 14.665 25.6203 14.665 26.1494C14.665 26.6784 15.1018 27.1151 15.6308 27.1151C15.8277 27.1151 16.006 27.0598 16.1598 26.9552C16.0983 27.1951 15.8892 27.3673 15.6308 27.3673C15.4032 27.3673 15.2064 27.2259 15.1264 27.0229H14.6835C14.7758 27.4596 15.1633 27.7856 15.6308 27.7856C16.166 27.7856 16.5966 27.3489 16.5966 26.8199V26.1432V26.1494ZM15.6308 26.6968C15.3294 26.6968 15.0833 26.4508 15.0833 26.1494C15.0833 25.8479 15.3294 25.6019 15.6308 25.6019C15.9322 25.6019 16.1783 25.8479 16.1783 26.1494C16.1783 26.4508 15.9322 26.6968 15.6308 26.6968Z" fill="#0D0802"/>
<path d="M19.9922 25.1836C19.6354 25.1836 19.3155 25.3804 19.1494 25.6757C18.9833 25.3804 18.6696 25.1836 18.3067 25.1836C17.8453 25.1836 17.4578 25.5096 17.3655 25.9402V25.9587C17.3532 26.0202 17.347 26.0817 17.347 26.1494C17.347 26.217 17.3532 26.2785 17.3655 26.3401V26.3585C17.4639 26.7891 17.8515 27.1151 18.3067 27.1151V26.6907C18.0791 26.6907 17.8884 26.5554 17.8023 26.3585H19.0448C19.1433 26.7891 19.5308 27.1151 19.986 27.1151V26.6907C19.7584 26.6907 19.5677 26.5554 19.4816 26.3585H20.9272C20.9395 26.2908 20.9518 26.217 20.9518 26.1494C20.9518 25.6142 20.515 25.1836 19.986 25.1836H19.9922ZM19.9922 25.608C20.2198 25.608 20.4105 25.7434 20.4966 25.9402H19.4939C19.5739 25.7434 19.7707 25.608 19.9983 25.608H19.9922ZM18.3128 25.608C18.5404 25.608 18.7311 25.7434 18.8172 25.9402H17.8146C17.8945 25.7434 18.0914 25.608 18.319 25.608H18.3128Z" fill="#0D0802"/>
<path d="M17.4085 25.1836H17.3347C17.0087 25.1836 16.738 25.4481 16.738 25.7803V26.3647H17.1625V25.7803C17.1625 25.688 17.2425 25.608 17.3347 25.608H17.4085V25.1836Z" fill="#0D0802"/>
<path d="M22.0714 25.1836C21.8684 25.1836 21.6839 25.2451 21.5239 25.3497V25.1836H21.0995V26.3647H21.5239V26.1555C21.5239 25.8541 21.77 25.608 22.0714 25.608C22.3728 25.608 22.6189 25.8541 22.6189 26.1555V26.3647H23.0433V26.1555C23.0433 25.6203 22.6066 25.1897 22.0776 25.1897L22.0714 25.1836Z" fill="#0D0802"/>
<path d="M17.1625 23.8984H16.738V25.0795H17.1625V23.8984Z" fill="#0D0802"/>
<path d="M17.1625 23.2832H16.738V23.7077H17.1625V23.2832Z" fill="#0D0802"/>
<path d="M15.0833 24.87C15.0833 24.5686 15.3294 24.3225 15.6308 24.3225C15.9322 24.3225 16.1783 24.5686 16.1783 24.87V25.0791H16.6027V24.87C16.6027 24.3348 16.166 23.9042 15.637 23.9042C15.434 23.9042 15.2494 23.9657 15.0895 24.0703V23.2891H14.665V25.0791H15.0895V24.87H15.0833Z" fill="#0D0802"/>
<path d="M23.6029 24.5684H23.1785V25.7494H23.6029V24.5684Z" fill="#0D0802"/>
<path d="M23.6029 25.9404H23.1785V26.3649H23.6029V25.9404Z" fill="#0D0802"/>
<path d="M15.6306 30.8066H23.0431" stroke="black" stroke-width="0.393691" stroke-miterlimit="10"/>
<path d="M12.3398 31.79H26.2482" stroke="black" stroke-width="0.264511" stroke-miterlimit="10"/>
</g>
<defs>
<clipPath id="clip0_2218_36233">
<rect width="39" height="40.0888" fill="white"/>
</clipPath>
</defs>
</svg>
