<svg width="45" height="39" viewBox="0 0 45 39" fill="none" xmlns="http://www.w3.org/2000/svg">
<g clip-path="url(#clip0_2218_36256)">
<path d="M38.5336 0.293945H5.80619C2.76193 0.293945 0.294067 2.76181 0.294067 5.80607V32.5674C0.294067 35.6116 2.76193 38.0795 5.80619 38.0795H38.5336C41.5779 38.0795 44.0458 35.6116 44.0458 32.5674V5.80607C44.0458 2.76181 41.5779 0.293945 38.5336 0.293945Z" fill="white" stroke="black" stroke-width="0.588301" stroke-miterlimit="10"/>
<path d="M37.5873 5.29492H6.64392V14.5223H37.5873V5.29492Z" fill="white" stroke="black" stroke-width="0.588301" stroke-miterlimit="10"/>
<path d="M18.3333 13.0508C18.0008 13.0508 17.7386 12.9805 17.534 12.8462C17.3293 12.7119 17.1887 12.5137 17.0991 12.2643C17.0096 12.0149 16.9648 11.7016 16.9648 11.3435V8.45314C16.9648 8.10143 17.0096 7.81368 17.1055 7.57708C17.2014 7.34048 17.3485 7.16143 17.5468 7.03993C17.745 6.91844 18.0136 6.85449 18.3333 6.85449C18.653 6.85449 18.9216 6.91844 19.1198 7.03993C19.318 7.16143 19.4651 7.34048 19.561 7.57708C19.657 7.81368 19.7017 8.10783 19.7017 8.45314V11.3435C19.7017 11.6121 19.6761 11.8487 19.625 12.0597C19.5738 12.2707 19.4971 12.4497 19.3884 12.5968C19.2797 12.7439 19.139 12.8526 18.9663 12.9293C18.7937 13.0061 18.5827 13.0444 18.3333 13.0444V13.0508ZM18.3269 12.2515C18.3908 12.2515 18.4548 12.2387 18.5123 12.2195C18.5699 12.2004 18.6146 12.1556 18.653 12.0917C18.6914 12.0277 18.7234 11.9382 18.7489 11.8231C18.7745 11.708 18.7809 11.5481 18.7809 11.3563V8.40837C18.7809 8.18456 18.7617 8.0183 18.717 7.9096C18.6722 7.80089 18.621 7.73055 18.5507 7.69218C18.4804 7.65381 18.41 7.64102 18.3269 7.64102C18.2438 7.64102 18.1734 7.66021 18.1095 7.69218C18.0455 7.72415 17.988 7.79449 17.9432 7.9032C17.8985 8.01191 17.8793 8.17817 17.8793 8.40837V11.3563C17.8793 11.5481 17.8921 11.708 17.9112 11.8231C17.9304 11.9382 17.9624 12.0341 18.0008 12.0917C18.0391 12.1492 18.0839 12.194 18.1414 12.2131C18.199 12.2323 18.2565 12.2451 18.3333 12.2451L18.3269 12.2515Z" fill="black"/>
<path d="M20.6737 14.1383L20.9167 12.9745H20.4883V12.0537H21.4794V12.9426L21.1277 14.1383H20.6801H20.6737Z" fill="black"/>
<path d="M23.481 13.0508C23.1485 13.0508 22.8863 12.9805 22.6817 12.8462C22.477 12.7119 22.3364 12.5137 22.2468 12.2643C22.1573 12.0149 22.1125 11.7016 22.1125 11.3435V8.45314C22.1125 8.10143 22.1573 7.81368 22.2532 7.57708C22.3491 7.34048 22.4962 7.16143 22.6945 7.03993C22.8927 6.91844 23.1613 6.85449 23.481 6.85449C23.8007 6.85449 24.0693 6.91844 24.2675 7.03993C24.4658 7.16143 24.6128 7.34048 24.7087 7.57708C24.8047 7.81368 24.8494 8.10783 24.8494 8.45314V11.3435C24.8494 11.6121 24.8238 11.8487 24.7727 12.0597C24.7215 12.2707 24.6448 12.4497 24.5361 12.5968C24.4274 12.7439 24.2867 12.8526 24.114 12.9293C23.9414 13.0061 23.7304 13.0444 23.481 13.0444V13.0508ZM23.481 12.2515C23.5449 12.2515 23.6089 12.2387 23.6664 12.2195C23.724 12.2004 23.7687 12.1556 23.8071 12.0917C23.8455 12.0277 23.8775 11.9382 23.903 11.8231C23.9286 11.708 23.935 11.5481 23.935 11.3563V8.40837C23.935 8.18456 23.9158 8.0183 23.8711 7.9096C23.8263 7.80089 23.7751 7.73055 23.7048 7.69218C23.6345 7.65381 23.5641 7.64102 23.481 7.64102C23.3979 7.64102 23.3275 7.66021 23.2636 7.69218C23.1996 7.72415 23.1421 7.79449 23.0973 7.9032C23.0525 8.01191 23.0334 8.17817 23.0334 8.40837V11.3563C23.0334 11.5481 23.0462 11.708 23.0653 11.8231C23.0845 11.9382 23.1165 12.0341 23.1549 12.0917C23.1932 12.1492 23.238 12.194 23.2955 12.2131C23.3531 12.2323 23.4106 12.2451 23.4874 12.2451L23.481 12.2515Z" fill="black"/>
<path d="M26.9595 13.0508C26.627 13.0508 26.3648 12.9805 26.1602 12.8462C25.9556 12.7119 25.8149 12.5137 25.7253 12.2643C25.6358 12.0149 25.5911 11.7016 25.5911 11.3435V8.45314C25.5911 8.10143 25.6358 7.81368 25.7317 7.57708C25.8277 7.34048 25.9747 7.16143 26.173 7.03993C26.3712 6.91844 26.6398 6.85449 26.9595 6.85449C27.2792 6.85449 27.5478 6.91844 27.746 7.03993C27.9443 7.16143 28.0913 7.34048 28.1873 7.57708C28.2832 7.81368 28.3279 8.10783 28.3279 8.45314V11.3435C28.3279 11.6121 28.3024 11.8487 28.2512 12.0597C28.2001 12.2707 28.1233 12.4497 28.0146 12.5968C27.9059 12.7439 27.7652 12.8526 27.5926 12.9293C27.4199 13.0061 27.2089 13.0444 26.9595 13.0444V13.0508ZM26.9531 12.2515C27.0171 12.2515 27.081 12.2387 27.1386 12.2195C27.1961 12.2004 27.2409 12.1556 27.2792 12.0917C27.3176 12.0277 27.3496 11.9382 27.3752 11.8231C27.4007 11.708 27.4071 11.5481 27.4071 11.3563V8.40837C27.4071 8.18456 27.3879 8.0183 27.3432 7.9096C27.2984 7.80089 27.2473 7.73055 27.1769 7.69218C27.1066 7.65381 27.0362 7.64102 26.9531 7.64102C26.87 7.64102 26.7996 7.66021 26.7357 7.69218C26.6717 7.72415 26.6142 7.79449 26.5694 7.9032C26.5247 8.01191 26.5055 8.17817 26.5055 8.40837V11.3563C26.5055 11.5481 26.5183 11.708 26.5375 11.8231C26.5566 11.9382 26.5886 12.0341 26.627 12.0917C26.6654 12.1492 26.7101 12.194 26.7677 12.2131C26.8252 12.2323 26.8828 12.2451 26.9595 12.2451L26.9531 12.2515Z" fill="black"/>
</g>
<defs>
<clipPath id="clip0_2218_36256">
<rect width="44.34" height="38.3739" fill="white"/>
</clipPath>
</defs>
</svg>
