<svg width="41" height="36" viewBox="0 0 41 36" fill="none" xmlns="http://www.w3.org/2000/svg">
<g clip-path="url(#clip0_2218_36267)">
<path d="M0.296143 0.294922H5.59688L10.5318 23.1402L35.8514 21.1812L39.7734 7.05706H7.05828" stroke="black" stroke-width="0.590064" stroke-linecap="round" stroke-linejoin="round"/>
<path d="M14.9021 7.05664L16.6448 22.2036" stroke="black" stroke-width="0.590064" stroke-miterlimit="10" stroke-linecap="round"/>
<path d="M23.5538 7.42676L23.3492 21.9758" stroke="black" stroke-width="0.590064" stroke-miterlimit="10" stroke-linecap="round"/>
<path d="M32.0515 7.05664L29.7148 21.6352" stroke="black" stroke-width="0.590064" stroke-miterlimit="10" stroke-linecap="round"/>
<path d="M8.49756 12.4346H37.926" stroke="black" stroke-width="0.590064" stroke-miterlimit="10" stroke-linecap="round"/>
<path d="M10.0616 18.1562H36.3018" stroke="black" stroke-width="0.590064" stroke-miterlimit="10" stroke-linecap="round"/>
<path d="M35.2039 27.1629H11.0782L10.5314 23.1406" stroke="black" stroke-width="0.590064" stroke-miterlimit="10" stroke-linecap="round"/>
<path d="M15.2503 35.3098C16.9156 35.3098 18.2656 33.9598 18.2656 32.2945C18.2656 30.6293 16.9156 29.2793 15.2503 29.2793C13.5851 29.2793 12.2351 30.6293 12.2351 32.2945C12.2351 33.9598 13.5851 35.3098 15.2503 35.3098Z" stroke="black" stroke-width="0.590064" stroke-miterlimit="10" stroke-linecap="round"/>
<path d="M30.7472 35.3098C32.4124 35.3098 33.7624 33.9598 33.7624 32.2945C33.7624 30.6293 32.4124 29.2793 30.7472 29.2793C29.0819 29.2793 27.7319 30.6293 27.7319 32.2945C27.7319 33.9598 29.0819 35.3098 30.7472 35.3098Z" stroke="black" stroke-width="0.590064" stroke-miterlimit="10" stroke-linecap="round"/>
</g>
<defs>
<clipPath id="clip0_2218_36267">
<rect width="40.0673" height="35.6045" fill="white"/>
</clipPath>
</defs>
</svg>
