<svg width="34" height="47" viewBox="0 0 34 47" fill="none" xmlns="http://www.w3.org/2000/svg">
<g clip-path="url(#clip0_2218_36277)">
<path d="M10.2673 31.3363V41.3817C10.2673 44.267 12.596 46.6132 15.4766 46.6132H28.4052C31.2782 46.6132 33.6145 44.2746 33.6145 41.3817V5.6192C33.6145 2.7339 31.2858 0.387695 28.4052 0.387695H15.4766C12.6036 0.387695 10.2673 2.72631 10.2673 5.6192V15.5355" fill="white"/>
<path d="M10.2673 31.3363V41.3817C10.2673 44.267 12.596 46.6132 15.4766 46.6132H28.4052C31.2782 46.6132 33.6145 44.2746 33.6145 41.3817V5.6192C33.6145 2.7339 31.2858 0.387695 28.4052 0.387695H15.4766C12.6036 0.387695 10.2673 2.72631 10.2673 5.6192V15.5355" stroke="black" stroke-width="1.03" stroke-miterlimit="10"/>
<path d="M21.4267 24.2598H0" stroke="black" stroke-width="1.03" stroke-miterlimit="10"/>
<path d="M12.9589 18.6865L21.9257 24.2597L16.0889 28.1169" stroke="black" stroke-width="1.03" stroke-miterlimit="10"/>
</g>
<defs>
<clipPath id="clip0_2218_36277">
<rect width="34" height="47" fill="white"/>
</clipPath>
</defs>
</svg>
