<svg width="42" height="44" viewBox="0 0 42 44" fill="none" xmlns="http://www.w3.org/2000/svg">
<g clip-path="url(#clip0_2218_36195)">
<path d="M41.2121 33.8827L20.5706 43.6633V16.4496L41.2121 7.32227V33.8827Z" stroke="black" stroke-width="0.666275" stroke-linecap="round" stroke-linejoin="round"/>
<path d="M20.5703 43.6634L0.944354 35.8104L0.297485 8.54492L20.5703 16.3979V43.6634Z" stroke="black" stroke-width="0.595119" stroke-linecap="round" stroke-linejoin="round"/>
<path d="M0.297485 8.54555L20.1046 0.317383L41.2119 7.32297" stroke="black" stroke-width="0.595119" stroke-miterlimit="10"/>
<path d="M10.201 21.5016L10.1234 12.1285L29.5036 3.43457" stroke="black" stroke-width="0.595119" stroke-miterlimit="10"/>
<path d="M30.0729 25.1956C29.9047 24.6587 29.4583 24.3223 29.0702 24.4452C28.6821 24.5682 28.5074 25.0986 28.6756 25.6355C28.8438 26.1724 29.2902 26.5088 29.6783 26.3859C29.8206 26.3406 29.9306 26.2435 30.0082 26.1077C30.0405 26.36 29.937 26.5864 29.7559 26.6446C29.5877 26.6963 29.4066 26.5993 29.2837 26.4117L28.9667 26.5088C29.1737 26.9292 29.5554 27.1686 29.8917 27.0651C30.2799 26.9422 30.4545 26.4117 30.2863 25.8748L30.0729 25.1956ZM29.5489 25.9654C29.329 26.0301 29.0767 25.8425 28.9861 25.5385C28.8956 25.2344 28.9861 24.9369 29.2125 24.8657C29.4389 24.7946 29.6847 24.9886 29.7753 25.2926C29.8659 25.5967 29.7753 25.8942 29.5489 25.9654Z" fill="#0D0802"/>
<path d="M32.2272 23.4617C31.9684 23.5458 31.8002 23.811 31.7743 24.1409C31.5609 23.8822 31.2698 23.7593 31.011 23.8369C30.6747 23.9404 30.5 24.3544 30.5647 24.8072V24.8266C30.5776 24.8913 30.5906 24.956 30.61 25.0207C30.6294 25.0854 30.6553 25.1501 30.6811 25.2083V25.2277H30.6876C30.8946 25.6417 31.2763 25.8745 31.6062 25.771L31.4768 25.3441C31.3151 25.3959 31.1275 25.2988 31.011 25.1242L31.7355 24.8978L31.9037 24.846C32.1107 25.26 32.4924 25.4929 32.8223 25.3894L32.6929 24.9625C32.5312 25.0142 32.3436 24.9172 32.2272 24.7425L32.9516 24.5161L33.0487 24.4838L33.2686 24.4126C33.2557 24.3415 33.2427 24.2703 33.2169 24.1927C33.0487 23.6558 32.6023 23.3194 32.2142 23.4423L32.2272 23.4617ZM32.363 23.8822C32.5247 23.8304 32.7123 23.9275 32.8287 24.1021L32.1042 24.3285C32.1042 24.1151 32.2013 23.9339 32.363 23.8822ZM31.1469 24.2638C31.3086 24.2121 31.4962 24.3091 31.6126 24.4838L30.8881 24.7102C30.8881 24.4967 30.9852 24.3156 31.1469 24.2638Z" fill="#0D0802"/>
<path d="M30.3576 24.0436L30.3059 24.063C30.0665 24.1341 29.9565 24.464 30.06 24.7939L30.2412 25.3826L30.5452 25.2856L30.3641 24.6969C30.3317 24.5999 30.3641 24.5093 30.4352 24.4834L30.487 24.464L30.3576 24.0371V24.0436Z" fill="#0D0802"/>
<path d="M33.7341 22.9902C33.5854 23.0354 33.4689 23.1389 33.3913 23.2813L33.3396 23.1131L33.0355 23.2101L33.3396 24.1804L33.4042 24.3939L33.7083 24.2968L33.6436 24.0834C33.5465 23.7793 33.6436 23.4818 33.87 23.4106C34.0964 23.3395 34.3422 23.5335 34.4328 23.8376L34.4974 24.051L34.8015 23.954L34.7368 23.7405C34.5686 23.2036 34.1223 22.8673 33.7341 22.9902Z" fill="#0D0802"/>
<path d="M29.7789 22.807L29.4701 22.9033L29.8398 24.089L30.1486 23.9927L29.7789 22.807Z" fill="#0D0802"/>
<path d="M29.5894 22.1928L29.2806 22.2891L29.4135 22.7152L29.7223 22.6189L29.5894 22.1928Z" fill="#0D0802"/>
<path d="M28.5787 24.2508C28.4817 23.9468 28.5787 23.6493 28.8051 23.5781C29.0315 23.5069 29.2773 23.701 29.3679 24.005L29.4326 24.2185L29.7366 24.1215L29.6719 23.908C29.5038 23.3711 29.0574 23.0347 28.6693 23.1576C28.5205 23.2029 28.4041 23.3064 28.3265 23.4487L28.0806 22.666L27.7766 22.763L28.2747 24.3479L28.3394 24.5613L28.6434 24.4643L28.5787 24.2508Z" fill="#0D0802"/>
<path d="M34.6506 22.0326L34.3418 22.1289L34.7115 23.3146L35.0203 23.2183L34.6506 22.0326Z" fill="#0D0802"/>
<path d="M35.0763 23.4037L34.7676 23.5L34.9005 23.9261L35.2092 23.8298L35.0763 23.4037Z" fill="#0D0802"/>
</g>
<defs>
<clipPath id="clip0_2218_36195">
<rect width="41.5419" height="44" fill="white"/>
</clipPath>
</defs>
</svg>
